<svg width="1076" height="534" viewBox="0 0 1076 534" fill="none" xmlns="http://www.w3.org/2000/svg">
<path d="M587.399 808.188C573.016 805.778 522.437 785.069 506.356 800.523C494.881 814.232 495.501 828.843 483.217 843.518C469.454 859.959 443.03 858.044 425.782 864.368C406.366 871.487 379.637 862.668 359.487 864.672C334.559 867.152 302.922 868.382 279.465 860.051C232.491 843.368 175.142 829.508 126.489 820.618C106.53 816.972 80.9303 785.764 66.3118 773.527C29.7697 742.938 4.04077 704.78 -23.3212 665.673C-127.042 517.431 -148.907 313.621 -12.4302 170.774C28.8467 127.57 72.0525 91.3098 131.685 81.3429C184.208 72.5643 238.772 81.1946 291.564 78.4133C456.694 69.7135 617.013 -9.97786 782.63 2.23917C847.745 7.04248 896.018 53.8635 941.958 95.4935C979.593 129.598 1008.11 172.734 1027.74 219.457C1070.67 321.615 1097.29 453.592 1052.63 561.591C1005.35 675.913 880.739 764.563 767.886 802.815C710.805 822.163 645.149 817.866 587.399 808.188Z" fill="#E7BCB3"/>
</svg>
