<svg width="886" height="806" viewBox="0 0 886 806" fill="none" xmlns="http://www.w3.org/2000/svg">
<path d="M813.631 -40.781C818.535 -27.0467 825.096 27.2125 846.427 33.7256C863.989 37.0669 876.446 29.4058 895.247 32.9827C916.31 36.9901 927.513 60.9981 941.44 72.9791C957.117 86.4654 962.439 114.104 974.008 130.724C988.319 151.284 1004.81 178.312 1008.96 202.855C1017.28 252.005 1033.12 308.839 1049.07 355.657C1055.61 374.863 1040.83 412.424 1037.27 431.153C1028.36 477.968 1007.57 519.029 986.755 561.978C907.839 724.785 740.513 843.186 549.271 793.609C491.431 778.614 438.714 758.552 400.955 711.334C367.696 669.745 348.646 617.891 320.495 573.146C232.437 433.183 84.73 332.013 14.701 181.433C-12.8319 122.23 4.53385 57.2615 18.5034 -3.14005C29.9477 -52.6226 53.7214 -98.5454 84.9558 -138.456C153.25 -225.719 255.528 -313.274 371.602 -326.895C494.472 -341.312 632.605 -275.687 720.997 -195.775C765.706 -155.356 793.944 -95.927 813.631 -40.781Z" fill="#79A899"/>
</svg>
